<svg width="1000" height="281" viewBox="0 0 1000 281" fill="none" xmlns="http://www.w3.org/2000/svg">
<g clip-path="url(#clip0_1602_220)">
<path d="M396.914 104.899C425.685 104.899 448.964 81.3935 448.964 52.4494C448.964 23.5053 425.638 0 396.914 0C368.191 0 344.864 23.5053 344.864 52.4494C344.864 81.3935 368.191 104.899 396.914 104.899Z" fill="#000209"/>
<path d="M98.4676 116.719H0V280.168H46.3708V151.812H86.8749C96.5434 151.812 104.287 159.615 104.287 169.358V280.357H150.658V169.358C150.658 140.177 127.191 116.719 98.4207 116.719H98.4676Z" fill="#000209"/>
<path d="M608.427 245.059H578.061C569.097 244.35 562.01 236.877 562.01 227.513V151.605H608.38V116.513H562.01V58.1519H515.639V116.513H495.316L469.268 151.605H515.639V227.655C515.639 256.646 538.918 280.104 567.689 280.104H608.193V260.666L608.38 245.012L608.427 245.059Z" fill="#000209"/>
<path d="M483.936 116.719H431.698L397.061 163.446L362.236 116.719H309.998L370.871 198.349L309.998 280.168H362.236L397.061 233.442L431.698 280.168H483.936L423.062 198.349L483.936 116.719Z" fill="#000209"/>
<path d="M805.395 116.719L764.891 220.767L724.387 116.719H678.016L741.799 280.168H788.029L851.813 116.719H805.442H805.395Z" fill="#000209"/>
<path d="M666.385 116.719H620.014V280.168H666.385V116.719Z" fill="#000209"/>
<path d="M666.385 58.367H620.014V105.094H666.385V58.367Z" fill="#000209"/>
<path d="M243.326 245.068C228.682 245.068 216.245 232.914 211.082 215.888H322.644C323.865 210.307 324.522 204.442 324.522 198.341C324.522 153.175 288.148 116.522 243.326 116.522C198.504 116.522 162.13 153.175 162.13 198.341C162.13 243.507 198.504 280.161 243.326 280.161H298.333L324.381 245.068H243.326ZM243.326 151.804C257.969 151.804 270.407 163.958 275.57 180.984H211.082C216.245 163.769 228.823 151.804 243.326 151.804Z" fill="#000209"/>
<path d="M947.762 116.719H863.281L849.67 151.812H936.216C945.885 151.812 953.629 159.615 953.629 169.358V180.992H884.12V181.181C858.259 182.742 837.749 204.261 837.749 230.698C837.749 257.136 858.259 278.655 884.12 280.216V280.405H1000V169.405C999.812 140.225 976.533 116.767 947.762 116.767V116.719ZM895.712 216.226C896.557 216.037 897.449 216.037 898.106 215.895H953.629V245.076H898.294C897.449 245.076 896.557 244.887 895.9 244.745C889.329 243.373 884.354 237.462 884.354 230.509C884.354 223.557 889.001 217.645 895.759 216.274L895.712 216.226Z" fill="#000209"/>
</g>
<defs>
<clipPath id="clip0_1602_220">
<rect width="1000" height="280.405" fill="white"/>
</clipPath>
</defs>
</svg>
