<svg xmlns="http://www.w3.org/2000/svg" viewBox="0 0 96 56" role="img" aria-labelledby="title">
  <title id="title">American Express</title>
  <rect width="96" height="56" rx="8" fill="#2E77BC"/>
  <rect x=".5" y=".5" width="95" height="55" rx="7.5" fill="none" stroke="#d7dde7"/>
  <path fill="#fff" d="M12 18h11.7l2.6 5.8L29 18h55v20H28.3l-2.7-6-2.7 6H12zm48.9 4.5h-8.4v3.1h8.1v3.8h-8.1v3.7h8.4v-3.2h-4.8v-1.4h4.7v-3.6h-4.7v-1.2h4.8zm9.8 15.6h5.7l-6.4-10 6.2-10h-5.5l-3.4 5.7-3.3-5.7h-5.7l6.2 10-6.3 10h5.5l3.5-5.9zm-27.2-5.9h2.9c3.3 0 5.4-1.8 5.4-4.7 0-2.8-2-4.7-5.3-4.7h-7.2v15.3h4.2zm0-5.7h2.4c.9 0 1.4.4 1.4 1.1s-.5 1.1-1.4 1.1h-2.4zm-15.2 11.6h4.2V26.4l5.2 11.7h3.8L46.7 26v12.1h4.1V22.8h-6.4l-4.7 10.3-4.6-10.3h-6.8zM17.7 32h3.9l-1.9-4.6zm-5.2 6.1 6.7-15.3h4.9L31 38.1h-4.7l-1-2.4h-7.2l-1 2.4z"/>
</svg>
