<svg xmlns="http://www.w3.org/2000/svg" viewBox="0 0 96 56" role="img" aria-labelledby="title">
  <title id="title">Discover</title>
  <rect width="96" height="56" rx="8" fill="#fff"/>
  <rect x=".5" y=".5" width="95" height="55" rx="7.5" fill="none" stroke="#d7dde7"/>
  <path fill="#111827" d="M13 22h7.3c4.5 0 7.5 2.4 7.5 6s-3 6-7.5 6H13zm4 2.8v6.4h2.8c2.4 0 3.8-1.2 3.8-3.2s-1.4-3.2-3.8-3.2zm13 9.2h4V22h-4zm18-8.4c-.9-.7-2-1.1-3.3-1.1-2.3 0-3.9 1.5-3.9 3.5s1.6 3.5 3.9 3.5c1.3 0 2.4-.4 3.3-1.1v3.1c-1 .5-2.3.8-3.7.8-4.4 0-7.7-2.7-7.7-6.3s3.3-6.3 7.7-6.3c1.4 0 2.7.3 3.7.8zm3 8.4h4V22h-4z"/>
  <circle cx="67" cy="28" r="8" fill="#F58220"/>
  <path fill="#111827" d="M76 22h7l-4.2 12h-4.4l-4.1-12h4.2l2.1 7.1 2.1-7.1z"/>
</svg>
