<svg xmlns="http://www.w3.org/2000/svg" viewBox="0 0 96 56" role="img" aria-labelledby="title">
  <title id="title">JCB</title>
  <rect width="96" height="56" rx="8" fill="#fff"/>
  <rect x=".5" y=".5" width="95" height="55" rx="7.5" fill="none" stroke="#d7dde7"/>
  <rect x="18" y="12" width="60" height="32" rx="6" fill="#fff"/>
  <path fill="#0B4EA2" d="M18 18a6 6 0 0 1 6-6h13v32H24a6 6 0 0 1-6-6z"/>
  <path fill="#188C45" d="M37 12h22v32H37z"/>
  <path fill="#D93025" d="M59 12h13a6 6 0 0 1 6 6v20a6 6 0 0 1-6 6H59z"/>
  <path fill="#fff" d="M25.3 20h5v11.2c0 3.1-1.7 5-5 5-1.2 0-2.3-.2-3.2-.6v-3.5c.7.3 1.4.4 2 .4.8 0 1.2-.5 1.2-1.5zm16.1 0h6.4c3.3 0 5.3 1.6 5.3 4.1 0 1.5-.8 2.6-2 3.1 1.6.5 2.5 1.7 2.5 3.6 0 3.1-2.3 5.2-5.9 5.2h-6.3zm5 3.4v2.3h1c.7 0 1.2-.5 1.2-1.2s-.5-1.1-1.2-1.1zm0 5.7v3.2h1.2c1 0 1.5-.6 1.5-1.6s-.6-1.6-1.5-1.6zm28.2-4.3c-1-.7-2.1-1-3.4-1-2.4 0-4 1.7-4 4.2s1.6 4.2 4 4.2c1.3 0 2.4-.3 3.4-1v4c-1.1.6-2.5.9-4 .9-5 0-8.4-3.3-8.4-8.1s3.4-8.1 8.4-8.1c1.5 0 2.9.3 4 .9z"/>
</svg>
