<svg xmlns="http://www.w3.org/2000/svg" viewBox="0 0 96 56" role="img" aria-labelledby="title">
  <title id="title">Visa</title>
  <rect width="96" height="56" rx="8" fill="#fff"/>
  <rect x=".5" y=".5" width="95" height="55" rx="7.5" fill="none" stroke="#d7dde7"/>
  <path fill="#1434CB" d="M36.4 37.4h-6.1l3.8-22.7h6.1zm-11.2-22.7-5.8 15.6-.7-3.6-2.1-10.7c-.3-1.1-1.1-1.3-2.1-1.3H5l-.1.5c2.1.5 4 1.2 5.8 2.1l5.3 20.1h6.4l9.7-22.7zm48 22.7h5.6l-4.9-22.7H69c-1.1 0-2 .6-2.4 1.5l-9.1 21.2h6.4l1.3-3.4h7.8zm-6.2-8 3.2-8.5 1.8 8.5zm-8.9-9.2.9-5.1c-1.4-.5-3.5-1-6.2-1-6.1 0-10.4 3.1-10.4 7.6 0 3.3 3.1 5.2 5.5 6.3 2.5 1.2 3.3 1.9 3.3 3 0 1.6-2 2.3-3.9 2.3-2.6 0-4-.4-6.1-1.3l-.9-.4-.9 5.3c1.5.6 4.1 1.2 6.8 1.2 6.5 0 10.7-3.1 10.8-7.9 0-2.7-1.7-4.7-5.2-6.3-2.2-1.1-3.5-1.8-3.5-2.9 0-1 1.1-2 3.6-2 2.1 0 3.7.4 4.9.9z"/>
</svg>
