<?xml version="1.0" encoding="UTF-8"?>
<!-- Generator: visioncortex VTracer 0.6.12 -->
<svg version="1.1" xmlns="http://www.w3.org/2000/svg" width="512" height="512" viewBox="24 16 176 176" role="img" aria-labelledby="title">
<title id="title">ElevenOrbits</title>
<path d="M0 0 C-1.279 3.836 -2.629 4.229 -6.062 6.25 C-24.56 17.638 -35.566 36.092 -36 58 C-35.494 73.571 -28.628 87.917 -15 96 C-11.277 97.761 -8.142 99 -4 99 C-4.557 98.853 -5.114 98.706 -5.688 98.555 C-18.595 94.761 -26.809 85.413 -30.5 72.426 C-34.63 52.387 -28.481 35.306 -14 21 C-13.385 20.363 -12.77 19.726 -12.137 19.07 C2.103 5.349 23.441 1.282 42.355 5.27 C44 6 44 6 45 9 C44.275 8.984 43.55 8.969 42.804 8.952 C40.053 8.901 37.302 8.863 34.551 8.835 C32.799 8.813 31.048 8.775 29.297 8.736 C8.959 8.563 -9.196 17.229 -20 35 C-27.996 49.59 -29.234 64.776 -22 80 C-20.778 81.906 -19.578 83.365 -18 85 C-18.286 84.441 -18.572 83.881 -18.867 83.305 C-26.419 67.94 -26.097 53.013 -16.781 38.445 C-6.001 23.646 9.22 16.372 27.375 16.562 C27.881 16.566 27.881 16.566 30.442 16.585 C38.026 16.753 44.126 17.626 51 21 C51.926 21.424 52.851 21.848 53.805 22.285 C61.791 26.256 67.742 31.742 74 38 C74 38.99 74 39.98 74 41 C70.304 40.438 68.835 39.06 66.375 36.312 C53.258 22.784 33.059 18.1 14.875 22.125 C-0.96 26.596 -12.884 36.865 -18.438 52.438 C-20.119 59.938 -19.706 67.86 -17 75 C-17.157 74.453 -17.315 73.907 -17.477 73.344 C-21.016 57.496 -13.509 45.816 -2.285 35.41 C10.931 24.779 30.099 25.438 45.125 31.125 C63.585 39.367 76.886 58.127 80 78 C80.065 79.937 80.086 81.875 80.062 83.812 C80.053 84.788 80.044 85.764 80.035 86.77 C80.029 87.138 80.029 87.138 80 89 C79.01 89 78.02 89 77 89 C76.914 88.152 76.827 87.304 76.738 86.43 C75.192 72.914 71.569 61.766 63 51 C62.602 50.439 62.203 49.879 61.793 49.301 C50.736 34.415 32.289 31.074 15 33 C11.243 33.824 8.29 35.034 5 37 C4.215 37.424 3.43 37.848 2.621 38.285 C-4.159 42.295 -9.426 48.094 -11 56 C-10.683 55.432 -10.366 54.863 -10.039 54.277 C-2.91 42.482 7.738 37.085 21.312 36.562 C39.455 37.095 53.748 46.987 62.23 62.709 C65.804 69.653 68.498 76.117 69 84 C69.08 85.137 69.16 86.274 69.242 87.445 C69.859 100.778 66.967 115.986 59 127 C56.812 127.816 56.812 127.816 55 128 C55.888 123.569 57.881 119.573 59.74 115.484 C68.189 96.365 65.334 74.264 53.172 57.477 C43.924 46.07 30.652 40.616 16 42 C9.048 43.715 -0.541 46.622 -3 54 C-2.599 53.602 -2.198 53.203 -1.785 52.793 C6.616 44.963 16.751 43.053 27.93 45.691 C42.62 50.554 54.016 62.813 57.652 77.992 C61.317 99.155 55.266 120.406 39 135 C24.786 146.429 24.786 146.429 17 146 C18.313 142.062 20.491 141.507 24 139.812 C41.777 130.62 52.772 113.433 54.05 93.365 C54.496 78.153 48.515 62.743 35.332 54.289 C29.816 51.47 25.155 49.856 18.938 49.875 C18.08 49.872 17.223 49.87 16.34 49.867 C14 50 14 50 11 51 C11.678 50.954 12.356 50.907 13.055 50.859 C26.267 50.347 36.567 55.659 43.891 66.902 C51.753 81.73 51.974 97.605 43.648 112.402 C42.189 114.686 40.643 116.845 39 119 C38.743 119.345 38.743 119.345 37.445 121.09 C30.652 129.557 21.199 134.657 11 138 C10.665 138.113 10.665 138.113 8.973 138.684 C-2.084 141.761 -17.362 141.561 -28 137 C-29.348 134.891 -29.348 134.891 -30 133 C-26.07 133.469 -22.152 133.96 -18.246 134.605 C-0.961 137.339 15.398 134.949 29 123 C29.605 122.488 30.209 121.976 30.832 121.449 C43.048 110.298 45.421 95.708 44 80 C43.191 76.515 42.003 73.945 40 71 C39.576 70.309 39.152 69.618 38.715 68.906 C35.089 63.493 30.573 60.27 25 57 C25.508 57.329 26.016 57.657 26.539 57.996 C37.71 65.715 42.691 76.572 42.281 90.016 C40.779 105.957 30.281 118.051 16.201 124.762 C-2.591 133.261 -24.43 129.842 -41 118 C-55 106.986 -55 106.986 -55 101 C-51.2 101 -51.135 101.686 -48.875 104.562 C-42.526 112.096 -35.026 117.144 -26 121 C-25.29 121.321 -24.579 121.642 -23.848 121.973 C-7.392 128.191 11.38 124.333 25 114 C32.544 107.236 37.16 97.501 37.125 87.375 C37.128 86.62 37.13 85.864 37.133 85.086 C37 83 37 83 36 80 C36.017 80.267 36.017 80.267 36.105 81.617 C36.63 96.065 29.828 106.829 17.754 114.41 C2.05 123.029 -16.582 120.908 -31.688 111.875 C-50.619 98.86 -60.467 78.879 -60 56 C-58.68 56 -57.36 56 -56 56 C-55.986 56.837 -55.972 57.673 -55.957 58.535 C-55.182 81.419 -44.524 99.194 -24.5 110.301 C-17.99 113.626 -11.955 114.389 -4.688 114.375 C-3.848 114.373 -3.009 114.372 -2.144 114.37 C4.253 114.244 9.411 113.263 15 110 C15.566 109.7 16.132 109.399 16.715 109.09 C21.726 106.145 26.159 101.523 28 96 C27.8 96.26 27.8 96.26 26.785 97.574 C17.461 109.013 5.358 112.567 -9 111 C-17.003 109.311 -23.547 105.954 -30 101 C-30.826 100.381 -31.653 99.762 -32.504 99.125 C-47.514 86.347 -52.448 64.8 -49.695 45.909 C-48.093 37.233 -45.137 21.426 -36 18 C-36.601 21.734 -37.694 24.685 -39.375 28.062 C-46.179 42.934 -48.262 61.508 -42 77 C-41.722 77.699 -41.443 78.397 -41.156 79.117 C-35.019 92.713 -22.94 103.582 -8 106 C-0.451 106.603 5.903 105.586 13 103 C12.26 103.151 11.52 103.302 10.758 103.457 C-4.905 106.541 -17.966 102.889 -29 91 C-40.984 75.739 -43.95 55.114 -37.25 36.875 C-32.018 24.842 -16.242 -1.805 0 0 Z M-5.312 69.812 C-6.894 77.146 -5.184 83.114 0.316 88.223 C5.476 92.145 11.131 92.865 17.25 90.875 C22.592 88.571 25.419 84.532 27 79 C27.767 72.229 25.806 66.052 20.438 61.562 C10.371 55.11 -0.493 59.484 -5.312 69.812 Z M-14 62 C-13 64 -13 64 -13 64 Z M34 73 C35 76 35 76 35 76 Z M-16 78 C-15 80 -15 80 -15 80 Z M-14 89 C-13.67 89.66 -13.34 90.32 -13 91 C-12.34 90.67 -11.68 90.34 -11 90 C-11.99 89.67 -12.98 89.34 -14 89 Z M30 89 C31 92 31 92 31 92 Z M17 99 C16.67 99.66 16.34 100.32 16 101 C16.99 100.67 17.98 100.34 19 100 C18.34 99.67 17.68 99.34 17 99 Z " fill="#000000" transform="translate(102,31)"/>
</svg>
